<?xml version="1.0" encoding="UTF-8"?>
<!--====================================================================
 | File: board.svg
 | Description: know board SVG, auto-generated by ./board-svg.perl
 | Command-Line: ./board-svg.perl -o board.svg
 | Options:
 |   radius = 512
 |   pad = 0
 |   cssfile = 
 |   want_lines = 0
 |   want_points = 0
 |   want_labels = 0
 |   want_rim = 1
 |   want_spaces = 1
 |   want_quadrant = 0
 ====================================================================-->
<svg xmlns="http://www.w3.org/2000/svg" version="1.1" id="board" viewBox="-512 -512 1024 1024" class="board board-nolines board-nopoints board-nolabels board-spaces board-rim board-noquadrant board-notemplate">
  <defs>
    <style class="css default style" id="style-default" type="text/css">/*-- default style --*/
.rim {
  fill: none;
  stroke: #000000;
  stroke-width: 1;
}
.point {
  fill: #000000;
  stroke: #000000;
  stroke-width: 1;
}
.line {
  stroke: #000000;
  stroke-width: 1;
}
.label {
  font: 40.96px monospace;
}
.space-label {
  font: 10.24px sans-serif;
  text-decoration: underline;
  fill: #000000;
}
.quadrant {
  fill: none;
  stroke: #000000;
}

.board-template .space {
  stroke: #000000;
  stroke-width: 1;
}
.space.white { fill: #ffffff; }
.space.black { fill: #000000; }

.board-labels .space.white { fill: #f0f0f0; }
.board-labels .space.black { fill: #d8d8d8; }
</style>
  </defs>
  <polygon class="Q99 rim" id="rim" points="-99.9871811222293 -502.141975551965 99.8077361096662 -502.17767355057 99.8077361096662 -502.17767355057 284.404417903542 -425.744203808986 284.404417903542 -425.744203808986 425.693381564611 -284.480482444906 425.693381564611 -284.480482444906 502.159832566772 -99.8974602105168 502.159832566772 -99.8974602105168 502.159832566772 99.8974602105167 502.159832566772 99.8974602105167 425.693381564611 284.480482444906 425.693381564611 284.480482444906 284.404417903542 425.744203808986 284.404417903542 425.744203808986 99.8077361096663 502.17767355057 99.8077361096663 502.17767355057 -99.9871811222293 502.141975551965 -99.9871811222293 502.141975551965 -284.556537904483 425.642545730351 -284.556537904483 425.642545730351 -425.795012461855 284.328344282819 -425.795012461855 284.328344282819 -502.195498502792 99.7180088225423 -502.195498502792 99.7180088225423 -502.124102506721 -100.07689884194 -502.124102506721 -100.07689884194 -425.591696307831 -284.632584279845 -425.591696307831 -284.632584279845 -284.252261585165 -425.845807521595 -284.252261585165 -425.845807521595 -99.9871811222293 -502.141975551965"/>
  <g class="spaces" id="spaces">
    <g class="black" id="black">
      <polygon class="Q0 a0.0 black border-arc-0 border-chord-short-3 border-r0 border-r1 space tier-0 wedge-0" id="a0.0" points="99.8077361096662 -502.17767355057 84.6236901113295 -425.779899272318 -84.7878897257188 -425.810168582592 -99.9871811222293 -502.141975551965"/>
      <polygon class="Q0 a0.2 black border-chord-long-3 border-chord-medium-3 border-r0 border-r1 space tier-2 wedge-0" id="a0.2" points="-56.6632948964828 -284.56666665921 56.553561169153 -284.546437840449 19.8717316613729 -99.9836321722058 -19.9102897846567 -99.9907401535587"/>
      <polygon class="Q0 a1.0b black border-arc-1 border-chord-short-3 border-s1i space tier-0 wedge-1" id="a1.0b" points="192.106077006604 -463.960938679778 99.8077361096653 -425.777186290125 284.404417903542 -425.744203808986"/>
      <polygon class="Q0 a1.1a black border-chord-long-0 border-chord-medium-3 border-chord-short-3 border-r1 space tier-1 wedge-1" id="a1.1a" points="99.8077361096662 -425.777186290125 84.6236901113295 -425.779899272318 56.553561169153 -284.546437840449 99.8077361096663 -284.538709478296"/>
      <polygon class="Q0 a1.2b black border-chord-long-0 border-chord-medium-3 border-r2 space tier-2 wedge-1" id="a1.2b" points="99.8077361096662 -284.538709478296 190.065956985867 -284.522582752514 99.8077361096662 -149.4089489088"/>
      <polygon class="Q0 a1.3 black border-chord-long-3 border-r1 border-r2 space tier-3 wedge-1" id="a1.3" points="66.7851788128476 -99.9752499961516 19.871731661373 -99.9836321722058 -2.8421709430404e-14 1.13686837721616e-13"/>
      <polygon class="Q0 a2.1a black border-chord-medium-0 border-chord-medium-3 border-r2 space tier-1 wedge-2" id="a2.1a" points="284.404417903542 -284.505726997158 190.065956985867 -284.522582752514 284.404417903542 -425.744203808986"/>
      <polygon class="Q0 a2.1b black border-chord-medium-0 border-chord-medium-3 border-r3 space tier-1 wedge-2" id="a2.1b" points="284.404417903542 -284.505726997158 425.693381564611 -284.480482444906 284.404417903542 -190.060521301251"/>
      <polygon class="Q0 a2.2b black border-chord-long-0 border-chord-long-3 border-r2 space tier-2 wedge-2" id="a2.2b" points="99.8077361096662 -149.4089489088 99.8077361096662 -99.9693497499358 66.7851788128478 -99.9752499961516"/>
      <polygon class="Q0 a2.2c black border-chord-long-0 border-chord-long-3 border-r3 space tier-2 wedge-2" id="a2.2c" points="99.8077361096662 -99.9693497499359 99.8077361096662 -66.6990706218022 149.579698848186 -99.9604568337345"/>
      <polygon class="Q0 a3.0a black border-arc-3 border-chord-short-0 border-s4i space tier-0 wedge-3" id="a3.0a" points="463.926607065692 -192.188971327711 425.693381564611 -99.9111227165456 425.693381564611 -284.480482444906"/>
      <polygon class="Q0 a3.1b black border-chord-long-3 border-chord-medium-0 border-chord-short-0 border-r4 space tier-1 wedge-3" id="a3.1b" points="425.693381564611 -99.9111227165456 425.693381564611 -84.685562023873 284.404417903542 -56.5781593402066 284.404417903542 -99.9363672687973"/>
      <polygon class="Q0 a3.2a black border-chord-long-3 border-chord-medium-0 border-r3 space tier-2 wedge-3" id="a3.2a" points="284.404417903542 -190.060521301251 149.579698848186 -99.9604568337345 284.404417903542 -99.9363672687973"/>
      <polygon class="Q0 a3.3 black border-chord-long-0 border-r3 border-r4 space tier-3 wedge-3" id="a3.3" points="99.8077361096662 -66.699070621802 99.8077361096662 -19.8553104013778 5.6843418860808e-14 -1.4210854715202e-14"/>
      <polygon class="Q1 a4.0 black border-arc-4 border-chord-short-0 border-r4 border-r5 space tier-0 wedge-4" id="a4.0" points="502.159832566772 99.8974602105167 425.693381564611 84.685562023873 425.693381564611 -84.685562023873 502.159832566772 -99.8974602105168"/>
      <polygon class="Q1 a4.2 black border-chord-long-0 border-chord-medium-0 border-r4 border-r5 space tier-2 wedge-4" id="a4.2" points="284.404417903542 -56.5781593402066 284.404417903542 56.5781593402065 99.8077361096662 19.8553104013777 99.8077361096662 -19.8553104013778"/>
      <polygon class="Q1 a5.0b black border-arc-5 border-chord-short-0 border-s5i space tier-0 wedge-5" id="a5.0b" points="463.926607065692 192.188971327711 425.693381564611 99.8837977044879 425.693381564611 284.480482444906"/>
      <polygon class="Q1 a5.1a black border-chord-long-1 border-chord-medium-0 border-chord-short-0 border-r5 space tier-1 wedge-5" id="a5.1a" points="425.693381564611 99.8837977044879 425.693381564611 84.6855620238729 284.404417903542 56.5781593402065 284.404417903542 99.8585531522361"/>
      <polygon class="Q1 a5.2b black border-chord-long-1 border-chord-medium-0 border-r6 space tier-2 wedge-5" id="a5.2b" points="284.404417903542 99.8585531522362 284.404417903542 190.060521301251 149.391113555916 99.8344298921601"/>
      <polygon class="Q1 a5.3 black border-chord-long-0 border-r5 border-r6 space tier-3 wedge-5" id="a5.3" points="99.8077361096663 66.6990706218021 99.8077361096663 19.8553104013778 0 0"/>
      <polygon class="Q1 a6.1a black border-chord-medium-0 border-chord-medium-1 border-r6 space tier-1 wedge-6" id="a6.1a" points="284.404417903542 284.455237892654 284.404417903542 190.060521301251 425.693381564611 284.480482444906"/>
      <polygon class="Q1 a6.1b black border-chord-medium-0 border-chord-medium-1 border-r7 space tier-1 wedge-6" id="a6.1b" points="284.404417903542 284.455237892654 284.404417903542 425.744203808986 190.009702818872 284.438372086186"/>
      <polygon class="Q1 a6.2b black border-chord-long-0 border-chord-long-1 border-r6 space tier-2 wedge-6" id="a6.2b" points="149.391113555916 99.8344298921601 99.8077361096662 99.8255706710977 99.8077361096663 66.6990706218021"/>
      <polygon class="Q1 a6.2c black border-chord-long-0 border-chord-long-1 border-r7 space tier-2 wedge-6" id="a6.2c" points="99.8077361096663 99.8255706710976 66.6812365891379 99.8196518531915 99.8077361096663 149.4089489088"/>
      <polygon class="Q1 a7.0a black border-arc-7 border-chord-short-1 border-s8i space tier-0 wedge-7" id="a7.0a" points="192.106077006604 463.960938679778 99.8077361096672 425.711221327847 284.404417903542 425.744203808986"/>
      <polygon class="Q1 a7.1b black border-chord-long-0 border-chord-medium-1 border-chord-short-1 border-r8 space tier-1 wedge-7" id="a7.1b" points="99.8077361096663 425.711221327847 84.6095006716465 425.708505810381 56.5273429884808 284.414522364877 99.8077361096663 284.422255411516"/>
      <polygon class="Q1 a7.2a black border-chord-long-0 border-chord-medium-1 border-r7 space tier-2 wedge-7" id="a7.2a" points="190.009702818872 284.438372086186 99.8077361096663 149.4089489088 99.8077361096663 284.422255411516"/>
      <polygon class="Q1 a7.3 black border-chord-long-1 border-r7 border-r8 space tier-3 wedge-7" id="a7.3" points="66.6812365891379 99.8196518531915 19.8374771164363 99.8112821284584 -2.8421709430404e-14 -1.13686837721616e-13"/>
      <polygon class="Q2 a8.0 black border-arc-8 border-chord-short-1 border-r8 border-r9 space tier-0 wedge-8" id="a8.0" points="-99.9871811222293 502.141975551965 -84.761620672588 425.678243728956 84.6095006716465 425.708505810381 99.8077361096663 502.17767355057"/>
      <polygon class="Q2 a8.2 black border-chord-long-1 border-chord-medium-1 border-r8 border-r9 space tier-2 wedge-8" id="a8.2" points="56.5273429884808 284.414522364877 -56.6289738857249 284.394304362848 -19.8731430524561 99.8041869046006 19.8374771164363 99.8112821284584"/>
      <polygon class="Q2 a9.0b black border-arc-9 border-chord-short-1 border-s9i space tier-0 wedge-9" id="a9.0b" points="-192.271859513356 463.892260641158 -99.9871811222297 425.675523329242 -284.556537904483 425.642545730351"/>
      <polygon class="Q2 a9.1a black border-chord-long-2 border-chord-medium-1 border-chord-short-1 border-r9 space tier-1 wedge-9" id="a9.1a" points="-99.9871811222293 425.675523329242 -84.761620672588 425.678243728956 -56.6289738857248 284.394304362848 -99.9871811222293 284.386557412911"/>
      <polygon class="Q2 a9.2b black border-chord-long-2 border-chord-medium-1 border-r10 space tier-2 wedge-9" id="a9.2b" points="-99.9871811222293 284.386557412911 -190.111333716117 284.370454641539 -99.9871811222293 149.561836205475"/>
      <polygon class="Q2 a9.3 black border-chord-long-1 border-r10 border-r9 space tier-3 wedge-9" id="a9.3" points="-66.7169025251578 99.7958171798676 -19.8731430524562 99.8041869046006 2.8421709430404e-14 -1.13686837721616e-13"/>
      <polygon class="Q2 a10.1a black border-chord-medium-1 border-chord-medium-2 border-r10 space tier-1 wedge-10" id="a10.1a" points="-284.506048800786 284.353588835071 -190.111333716117 284.370454641539 -284.556537904483 425.642545730351"/>
      <polygon class="Q2 a10.1b black border-chord-medium-1 border-chord-medium-2 border-r11 space tier-1 wedge-10" id="a10.1b" points="-284.506048800786 284.353588835071 -425.795012461855 284.328344282819 -284.472317188387 189.958878270602"/>
      <polygon class="Q2 a10.2b black border-chord-long-1 border-chord-long-2 border-r10 space tier-2 wedge-10" id="a10.2b" points="-99.9871811222293 149.561836205475 -99.9871811222293 99.7898726724926 -66.7169025251578 99.7958171798675"/>
      <polygon class="Q2 a10.2c black border-chord-long-1 border-chord-long-2 border-r11 space tier-2 wedge-10" id="a10.2c" points="-99.9871811222293 99.7898726724926 -99.9871811222293 66.7673148485661 -149.426779491935 99.7810391408989"/>
      <polygon class="Q2 a11.0a black border-arc-11 border-chord-short-2 border-s12i space tier-0 wedge-11" id="a11.0a" points="-463.995255482324 192.02317655268 -425.729047500631 99.7316713285707 -425.795012461855 284.328344282819"/>
      <polygon class="Q2 a11.1b black border-chord-long-1 border-chord-medium-2 border-chord-short-2 border-r12 space tier-1 wedge-11" id="a11.1b" points="-425.729047500631 99.7316713285711 -425.723616465785 84.5334366183366 -284.42461774653 56.4765248321695 -284.440083839562 99.7569158808228"/>
      <polygon class="Q2 a11.2a black border-chord-long-1 border-chord-medium-2 border-r11 space tier-2 wedge-11" id="a11.2a" points="-284.472317188387 189.958878270602 -149.426779491935 99.7810391408989 -284.440083839562 99.7569158808228"/>
      <polygon class="Q2 a11.3 black border-chord-long-2 border-r11 border-r12 space tier-3 wedge-11" id="a11.3" points="-99.9871811222293 66.7673148485661 -99.9871811222293 19.8538669482561 0 0"/>
      <polygon class="Q3 a12.0 black border-arc-12 border-chord-short-2 border-r12 border-r13 space tier-0 wedge-12" id="a12.0" points="-502.124102506721 -100.07689884194 -425.663092303901 -84.8376766153637 -425.723616465785 84.5334366183366 -502.195498502792 99.7180088225423"/>
      <polygon class="Q3 a12.2 black border-chord-long-2 border-chord-medium-2 border-r12 border-r13 space tier-2 wedge-12" id="a12.2" points="-284.42461774653 56.4765248321695 -284.384181743118 -56.6797866234135 -99.9871811222293 -19.9281551327764 -99.9871811222293 19.8538669482561"/>
      <polygon class="Q3 a13.0b black border-arc-13 border-chord-short-2 border-s13i space tier-0 wedge-13" id="a13.0b" points="-463.857899407276 -192.354741560892 -425.65765150456 -100.06323633591 -425.591696307831 -284.632584279845"/>
      <polygon class="Q3 a13.1a black border-chord-long-3 border-chord-medium-2 border-chord-short-2 border-r13 space tier-1 wedge-13" id="a13.1a" points="-425.65765150456 -100.063236335911 -425.663092303901 -84.8376766153636 -284.384181743118 -56.6797866234134 -284.368687843492 -100.037991783659"/>
      <polygon class="Q3 a13.2b black border-chord-long-3 border-chord-medium-2 border-r14 space tier-2 wedge-13" id="a13.2b" points="-284.368687843492 -100.037991783659 -284.336482301261 -190.162140061846 -149.543968788136 -100.013902218722"/>
      <polygon class="Q3 a13.3 black border-chord-long-2 border-r13 border-r14 space tier-3 wedge-13" id="a13.3" points="-99.9871811222293 -66.8706885133684 -99.9871811222293 -19.9281551327765 0 0"/>
      <polygon class="Q3 a14.1a black border-chord-medium-2 border-chord-medium-3 border-r14 space tier-1 wedge-14" id="a14.1a" points="-284.302732646762 -284.607339727593 -284.336482301261 -190.162140061846 -425.591696307831 -284.632584279845"/>
      <polygon class="Q3 a14.1b black border-chord-medium-2 border-chord-medium-3 border-r15 space tier-1 wedge-14" id="a14.1b" points="-284.302732646762 -284.607339727593 -284.252261585165 -425.845807521595 -189.964271729088 -284.590483972237"/>
      <polygon class="Q3 a14.2b black border-chord-long-2 border-chord-long-3 border-r14 space tier-2 wedge-14" id="a14.2b" points="-149.543968788136 -100.013902218722 -99.9871811222292 -100.005047748541 -99.9871811222293 -66.8706885133685"/>
      <polygon class="Q3 a14.2c black border-chord-long-2 border-chord-long-3 border-r15 space tier-2 wedge-14" id="a14.2c" points="-99.9871811222293 -100.005047748541 -66.7494487527972 -99.999109056305 -99.9871811222293 -149.793432246964"/>
      <polygon class="Q3 a15.0a black border-arc-15 border-chord-short-3 border-s0i space tier-0 wedge-15" id="a15.0a" points="-192.119721353697 -463.99389153678 -99.9871811222286 -425.81288428873 -284.252261585165 -425.845807521595"/>
      <polygon class="Q3 a15.1b black border-chord-long-2 border-chord-medium-3 border-chord-short-3 border-r0 space tier-1 wedge-15" id="a15.1b" points="-99.9871811222293 -425.81288428873 -84.7878897257188 -425.810168582592 -56.6632948964828 -284.56666665921 -99.9871811222293 -284.574407476901"/>
      <polygon class="Q3 a15.2a black border-chord-long-2 border-chord-medium-3 border-r15 space tier-2 wedge-15" id="a15.2a" points="-189.964271729088 -284.590483972237 -99.9871811222293 -149.793432246964 -99.9871811222293 -284.574407476902"/>
      <polygon class="Q3 a15.3 black border-chord-long-3 border-r0 border-r15 space tier-3 wedge-15" id="a15.3" points="-66.7494487527972 -99.9991090563049 -19.9102897846567 -99.9907401535587 0 0"/>
    </g>
    <g class="white" id="white">
      <polygon class="Q0 a0.1 border-chord-medium-3 border-chord-short-3 border-r0 border-r1 space tier-1 wedge-0 white" id="a0.1" points="84.6236901113295 -425.779899272318 -84.7878897257188 -425.810168582592 -56.6632948964828 -284.56666665921 56.553561169153 -284.546437840449"/>
      <polygon class="Q0 a0.3 border-chord-long-3 border-r0 border-r1 space tier-3 wedge-0 white" id="a0.3" points="19.8717316613729 -99.9836321722058 -19.9102897846567 -99.9907401535587 2.8421709430404e-14 1.13686837721616e-13"/>
      <polygon class="Q0 a1.0a border-arc-1 border-chord-short-3 border-r1 border-s1i space tier-0 wedge-1 white" id="a1.0a" points="192.106077006604 -463.960938679778 99.8077361096653 -425.777186290125 84.6236901113295 -425.779899272318 99.8077361096662 -502.17767355057"/>
      <polygon class="Q0 a1.1b border-chord-long-0 border-chord-medium-3 border-chord-short-3 border-r2 space tier-1 wedge-1 white" id="a1.1b" points="99.8077361096662 -425.777186290125 284.404417903542 -425.744203808986 190.065956985867 -284.522582752514 99.8077361096663 -284.538709478296"/>
      <polygon class="Q0 a1.2a border-chord-long-0 border-chord-long-3 border-chord-medium-3 border-r1 border-r2 space tier-2 wedge-1 white" id="a1.2a" points="99.8077361096662 -284.538709478296 56.553561169153 -284.546437840449 19.8717316613729 -99.9836321722058 66.7851788128478 -99.9752499961516 99.8077361096662 -149.4089489088"/>
      <polygon class="Q0 a2.0 border-arc-2 border-chord-medium-0 border-chord-medium-3 space tier-0 wedge-2 white" id="a2.0" points="284.404417903542 -425.744203808986 284.404417903542 -284.505726997158 425.693381564611 -284.480482444906"/>
      <polygon class="Q0 a2.2a border-chord-long-0 border-chord-long-3 border-chord-medium-0 border-chord-medium-3 border-r2 border-r3 space tier-2 wedge-2 white" id="a2.2a" points="284.404417903542 -284.505726997158 190.065956985867 -284.522582752514 99.8077361096662 -149.4089489088 99.8077361096662 -99.9693497499358 149.579698848186 -99.9604568337345 284.404417903542 -190.060521301251"/>
      <polygon class="Q0 a2.3 border-chord-long-0 border-chord-long-3 border-r2 border-r3 space tier-3 wedge-2 white" id="a2.3" points="66.7851788128478 -99.9752499961516 0 0 99.8077361096662 -66.699070621802 99.8077361096662 -99.9693497499358"/>
      <polygon class="Q0 a3.0b border-arc-3 border-chord-short-0 border-r4 border-s4i space tier-0 wedge-3 white" id="a3.0b" points="502.159832566772 -99.8974602105168 425.693381564611 -84.685562023873 425.693381564611 -99.9111227165456 463.926607065692 -192.188971327711"/>
      <polygon class="Q0 a3.1a border-chord-long-3 border-chord-medium-0 border-chord-short-0 border-r3 space tier-1 wedge-3 white" id="a3.1a" points="425.693381564611 -99.9111227165456 284.404417903542 -99.9363672687973 284.404417903542 -190.060521301251 425.693381564611 -284.480482444906"/>
      <polygon class="Q0 a3.2b border-chord-long-0 border-chord-long-3 border-chord-medium-0 border-r3 border-r4 space tier-2 wedge-3 white" id="a3.2b" points="284.404417903542 -56.5781593402065 99.8077361096662 -19.8553104013778 99.8077361096662 -66.6990706218022 149.579698848186 -99.9604568337345 284.404417903542 -99.9363672687973"/>
      <polygon class="Q1 a4.1 border-chord-medium-0 border-chord-short-0 border-r4 border-r5 space tier-1 wedge-4 white" id="a4.1" points="425.693381564611 84.685562023873 425.693381564611 -84.685562023873 284.404417903542 -56.5781593402066 284.404417903542 56.5781593402065"/>
      <polygon class="Q1 a4.3 border-chord-long-0 border-r4 border-r5 space tier-3 wedge-4 white" id="a4.3" points="99.8077361096662 19.8553104013777 99.8077361096662 -19.8553104013778 0 0"/>
      <polygon class="Q1 a5.0a border-arc-5 border-chord-short-0 border-r5 border-s5i space tier-0 wedge-5 white" id="a5.0a" points="463.926607065692 192.188971327711 425.693381564611 99.8837977044879 425.693381564611 84.6855620238729 502.159832566772 99.8974602105167"/>
      <polygon class="Q1 a5.1b border-chord-long-1 border-chord-medium-0 border-chord-short-0 border-r6 space tier-1 wedge-5 white" id="a5.1b" points="425.693381564611 99.8837977044879 425.693381564611 284.480482444906 284.404417903542 190.060521301251 284.404417903542 99.8585531522361"/>
      <polygon class="Q1 a5.2a border-chord-long-0 border-chord-long-1 border-chord-medium-0 border-r5 border-r6 space tier-2 wedge-5 white" id="a5.2a" points="284.404417903542 99.8585531522362 284.404417903542 56.5781593402065 99.8077361096662 19.8553104013777 99.8077361096663 66.6990706218021 149.391113555916 99.8344298921601"/>
      <polygon class="Q1 a6.0 border-arc-6 border-chord-medium-0 border-chord-medium-1 space tier-0 wedge-6 white" id="a6.0" points="425.693381564611 284.480482444906 284.404417903542 284.455237892654 284.404417903542 425.744203808986"/>
      <polygon class="Q1 a6.2a border-chord-long-0 border-chord-long-1 border-chord-medium-0 border-chord-medium-1 border-r6 border-r7 space tier-2 wedge-6 white" id="a6.2a" points="284.404417903542 284.455237892654 284.404417903542 190.060521301251 149.391113555916 99.8344298921601 99.8077361096662 99.8255706710977 99.8077361096663 149.4089489088 190.009702818872 284.438372086186"/>
      <polygon class="Q1 a6.3 border-chord-long-0 border-chord-long-1 border-r6 border-r7 space tier-3 wedge-6 white" id="a6.3" points="99.8077361096663 66.6990706218021 0 0 66.6812365891379 99.8196518531915 99.8077361096662 99.8255706710977"/>
      <polygon class="Q1 a7.0b border-arc-7 border-chord-short-1 border-r8 border-s8i space tier-0 wedge-7 white" id="a7.0b" points="99.8077361096663 502.17767355057 84.6095006716465 425.708505810381 99.8077361096672 425.711221327847 192.106077006604 463.960938679778"/>
      <polygon class="Q1 a7.1a border-chord-long-0 border-chord-medium-1 border-chord-short-1 border-r7 space tier-1 wedge-7 white" id="a7.1a" points="99.8077361096663 425.711221327847 99.8077361096663 284.422255411516 190.009702818872 284.438372086186 284.404417903542 425.744203808986"/>
      <polygon class="Q1 a7.2b border-chord-long-0 border-chord-long-1 border-chord-medium-1 border-r7 border-r8 space tier-2 wedge-7 white" id="a7.2b" points="56.5273429884808 284.414522364877 19.8374771164362 99.8112821284583 66.6812365891379 99.8196518531915 99.8077361096663 149.4089489088 99.8077361096663 284.422255411516"/>
      <polygon class="Q2 a8.1 border-chord-medium-1 border-chord-short-1 border-r8 border-r9 space tier-1 wedge-8 white" id="a8.1" points="-84.761620672588 425.678243728956 84.6095006716465 425.708505810381 56.5273429884808 284.414522364877 -56.6289738857249 284.394304362848"/>
      <polygon class="Q2 a8.3 border-chord-long-1 border-r8 border-r9 space tier-3 wedge-8 white" id="a8.3" points="-19.8731430524561 99.8041869046006 19.8374771164363 99.8112821284584 0 0"/>
      <polygon class="Q2 a9.0a border-arc-9 border-chord-short-1 border-r9 border-s9i space tier-0 wedge-9 white" id="a9.0a" points="-192.271859513356 463.892260641158 -99.9871811222297 425.675523329242 -84.761620672588 425.678243728956 -99.9871811222293 502.141975551965"/>
      <polygon class="Q2 a9.1b border-chord-long-2 border-chord-medium-1 border-chord-short-1 border-r10 space tier-1 wedge-9 white" id="a9.1b" points="-99.9871811222293 425.675523329242 -284.556537904483 425.642545730351 -190.111333716116 284.370454641539 -99.9871811222293 284.386557412911"/>
      <polygon class="Q2 a9.2a border-chord-long-1 border-chord-long-2 border-chord-medium-1 border-r10 border-r9 space tier-2 wedge-9 white" id="a9.2a" points="-99.9871811222293 284.386557412911 -56.6289738857249 284.394304362848 -19.8731430524561 99.8041869046006 -66.7169025251578 99.7958171798675 -99.9871811222293 149.561836205475"/>
      <polygon class="Q2 a10.0 border-arc-10 border-chord-medium-1 border-chord-medium-2 space tier-0 wedge-10 white" id="a10.0" points="-284.556537904483 425.642545730351 -284.506048800786 284.353588835071 -425.795012461855 284.328344282819"/>
      <polygon class="Q2 a10.2a border-chord-long-1 border-chord-long-2 border-chord-medium-1 border-chord-medium-2 border-r10 border-r11 space tier-2 wedge-10 white" id="a10.2a" points="-284.506048800786 284.353588835071 -190.111333716117 284.370454641539 -99.9871811222293 149.561836205475 -99.9871811222293 99.7898726724926 -149.426779491935 99.7810391408989 -284.472317188387 189.958878270602"/>
      <polygon class="Q2 a10.3 border-chord-long-1 border-chord-long-2 border-r10 border-r11 space tier-3 wedge-10 white" id="a10.3" points="-66.7169025251578 99.7958171798675 0 0 -99.9871811222293 66.7673148485661 -99.9871811222293 99.7898726724926"/>
      <polygon class="Q2 a11.0b border-arc-11 border-chord-short-2 border-r12 border-s12i space tier-0 wedge-11 white" id="a11.0b" points="-502.195498502792 99.7180088225423 -425.723616465785 84.5334366183366 -425.729047500631 99.7316713285708 -463.995255482324 192.02317655268"/>
      <polygon class="Q2 a11.1a border-chord-long-1 border-chord-medium-2 border-chord-short-2 border-r11 space tier-1 wedge-11 white" id="a11.1a" points="-425.729047500631 99.7316713285711 -284.440083839562 99.7569158808228 -284.472317188387 189.958878270602 -425.795012461855 284.328344282819"/>
      <polygon class="Q2 a11.2b border-chord-long-1 border-chord-long-2 border-chord-medium-2 border-r11 border-r12 space tier-2 wedge-11 white" id="a11.2b" points="-284.42461774653 56.4765248321695 -99.9871811222293 19.8538669482561 -99.9871811222293 66.7673148485661 -149.426779491935 99.7810391408989 -284.440083839562 99.7569158808228"/>
      <polygon class="Q3 a12.1 border-chord-medium-2 border-chord-short-2 border-r12 border-r13 space tier-1 wedge-12 white" id="a12.1" points="-425.663092303901 -84.8376766153637 -425.723616465785 84.5334366183366 -284.42461774653 56.4765248321695 -284.384181743118 -56.6797866234135"/>
      <polygon class="Q3 a12.3 border-chord-long-2 border-r12 border-r13 space tier-3 wedge-12 white" id="a12.3" points="-99.9871811222293 -19.9281551327764 -99.9871811222293 19.8538669482561 0 0"/>
      <polygon class="Q3 a13.0a border-arc-13 border-chord-short-2 border-r13 border-s13i space tier-0 wedge-13 white" id="a13.0a" points="-463.857899407276 -192.354741560892 -425.65765150456 -100.06323633591 -425.663092303901 -84.8376766153636 -502.124102506721 -100.07689884194"/>
      <polygon class="Q3 a13.1b border-chord-long-3 border-chord-medium-2 border-chord-short-2 border-r14 space tier-1 wedge-13 white" id="a13.1b" points="-425.65765150456 -100.063236335911 -425.591696307831 -284.632584279845 -284.336482301261 -190.162140061846 -284.368687843492 -100.037991783659"/>
      <polygon class="Q3 a13.2a border-chord-long-2 border-chord-long-3 border-chord-medium-2 border-r13 border-r14 space tier-2 wedge-13 white" id="a13.2a" points="-284.368687843492 -100.037991783659 -284.384181743118 -56.6797866234135 -99.9871811222293 -19.9281551327764 -99.9871811222293 -66.8706885133685 -149.543968788136 -100.013902218722"/>
      <polygon class="Q3 a14.0 border-arc-14 border-chord-medium-2 border-chord-medium-3 space tier-0 wedge-14 white" id="a14.0" points="-425.591696307831 -284.632584279845 -284.302732646762 -284.607339727593 -284.252261585165 -425.845807521595"/>
      <polygon class="Q3 a14.2a border-chord-long-2 border-chord-long-3 border-chord-medium-2 border-chord-medium-3 border-r14 border-r15 space tier-2 wedge-14 white" id="a14.2a" points="-284.302732646762 -284.607339727593 -284.336482301261 -190.162140061846 -149.543968788136 -100.013902218722 -99.9871811222292 -100.005047748541 -99.9871811222293 -149.793432246964 -189.964271729088 -284.590483972237"/>
      <polygon class="Q3 a14.3 border-chord-long-2 border-chord-long-3 border-r14 border-r15 space tier-3 wedge-14 white" id="a14.3" points="-99.9871811222293 -66.8706885133685 -5.6843418860808e-14 -5.6843418860808e-14 -66.7494487527972 -99.9991090563049 -99.9871811222292 -100.005047748541"/>
      <polygon class="Q3 a15.0b border-arc-15 border-chord-short-3 border-r0 border-s0i space tier-0 wedge-15 white" id="a15.0b" points="-99.9871811222293 -502.141975551965 -84.7878897257188 -425.810168582592 -99.9871811222286 -425.81288428873 -192.119721353697 -463.99389153678"/>
      <polygon class="Q3 a15.1a border-chord-long-2 border-chord-medium-3 border-chord-short-3 border-r15 space tier-1 wedge-15 white" id="a15.1a" points="-99.9871811222293 -425.81288428873 -99.9871811222293 -284.574407476902 -189.964271729088 -284.590483972237 -284.252261585165 -425.845807521595"/>
      <polygon class="Q3 a15.2b border-chord-long-2 border-chord-long-3 border-chord-medium-3 border-r0 border-r15 space tier-2 wedge-15 white" id="a15.2b" points="-56.6632948964828 -284.56666665921 -19.9102897846567 -99.9907401535587 -66.7494487527972 -99.999109056305 -99.9871811222293 -149.793432246964 -99.9871811222293 -284.574407476902"/>
    </g>
  </g>
</svg>
